<svg width="491" height="491" viewBox="0 0 491 491" fill="none" xmlns="http://www.w3.org/2000/svg">
<rect width="491" height="491" fill="#F84D4D" style="fill:#F84D4D;fill:color(display-p3 0.9725 0.3020 0.3020);fill-opacity:1;"/>
<path d="M99.319 283.426L80.9149 220.766C80.4184 219.206 79.851 218.036 79.2127 217.256C78.5744 216.475 77.5106 215.837 76.0213 215.341L74.7447 214.915V212.681H102.191V214.915L99.9573 215.66C98.3261 216.156 97.2623 216.866 96.7659 217.787C96.3403 218.709 96.3403 219.986 96.7659 221.617L108.362 265.234L121.021 227.468L119.106 221.298C118.61 219.809 118.113 218.674 117.617 217.894C117.12 217.043 116.305 216.369 115.17 215.873L112.83 214.915V212.681H138.893V214.915L135.915 215.873C134.496 216.369 133.681 217.078 133.468 218C133.255 218.922 133.397 220.163 133.893 221.724L147.298 265.872L159.638 222.362C160.134 220.731 160.276 219.312 160.063 218.107C159.851 216.901 158.929 216.05 157.298 215.553L155.17 214.915V212.681H170.915V214.915L168.255 215.766C166.837 216.263 165.808 217.007 165.17 218C164.602 218.922 164.106 220.163 163.68 221.724L146.234 283.426H138.893L123.149 233.851L106.659 283.426H99.319ZM187.426 284.489C184.66 284.489 182.143 283.993 179.873 283C177.604 281.936 175.795 280.234 174.448 277.894C173.171 275.482 172.568 272.326 172.639 268.426L172.958 241.724C172.958 240.163 172.71 239.029 172.214 238.319C171.717 237.61 170.831 237.114 169.554 236.83L168.277 236.404V234.49L186.469 230.979L187.639 232.149L187.107 247.149V271.298C187.107 273.709 187.745 275.482 189.022 276.617C190.369 277.681 192.036 278.213 194.022 278.213C196.079 278.213 197.923 277.929 199.554 277.362C201.256 276.723 202.994 275.801 204.767 274.596L205.086 241.83C205.086 240.199 204.838 239.064 204.341 238.426C203.916 237.787 203.064 237.291 201.788 236.936L200.618 236.617V234.702L218.384 230.979L219.554 232.149L219.235 247.149V275.021C219.235 276.511 219.412 277.716 219.767 278.638C220.192 279.489 221.079 280.128 222.426 280.553L223.809 280.979V283L205.83 284.064L204.873 277.362C202.462 279.418 199.838 281.121 197.001 282.468C194.164 283.816 190.972 284.489 187.426 284.489ZM228.12 283V280.979L229.716 280.447C231.134 280.092 232.092 279.489 232.588 278.638C233.155 277.787 233.439 276.653 233.439 275.234V244.064C233.368 242.504 233.085 241.334 232.588 240.553C232.092 239.702 231.134 239.135 229.716 238.851L228.12 238.426V236.511L245.46 230.341L246.737 231.511L247.694 240.873V241.617C248.758 239.631 250.106 237.787 251.737 236.085C253.368 234.383 255.141 233 257.056 231.936C258.971 230.873 260.886 230.341 262.801 230.341C265.496 230.341 267.517 231.05 268.865 232.468C270.212 233.887 270.886 235.695 270.886 237.894C270.886 240.305 270.212 242.149 268.865 243.426C267.517 244.631 265.886 245.234 263.971 245.234C261.134 245.234 258.687 243.958 256.631 241.404L256.418 241.192C255.709 240.341 254.893 239.88 253.971 239.809C253.12 239.667 252.269 240.092 251.418 241.085C250.709 241.794 250.035 242.646 249.397 243.638C248.829 244.56 248.297 245.66 247.801 246.936V274.809C247.801 276.156 248.085 277.291 248.652 278.213C249.219 279.064 250.177 279.667 251.524 280.021L254.716 280.979V283H228.12ZM295.133 284.489C290.948 284.489 287.19 283.567 283.856 281.723C280.523 279.809 277.899 276.901 275.984 273C274.14 269.028 273.218 263.993 273.218 257.894C273.218 251.794 274.282 246.724 276.409 242.681C278.537 238.568 281.374 235.482 284.92 233.426C288.466 231.369 292.367 230.341 296.622 230.341C299.175 230.341 301.622 230.66 303.963 231.298C306.303 231.865 308.36 232.752 310.133 233.958V220.128C310.133 218.639 309.884 217.575 309.388 216.936C308.962 216.227 308.04 215.695 306.622 215.341L304.494 214.915V212.894L323.005 208.319L324.388 209.277L323.962 224.277V275.447C323.962 276.794 324.211 277.929 324.707 278.851C325.204 279.702 326.09 280.305 327.367 280.66L328.537 280.979V283L310.877 284.17L309.92 279.702C308.005 281.191 305.806 282.362 303.324 283.213C300.842 284.064 298.111 284.489 295.133 284.489ZM300.984 279.596C304.033 279.596 306.906 278.603 309.601 276.617V237.043C306.977 235.412 304.14 234.596 301.09 234.596C297.615 234.596 294.636 236.44 292.154 240.128C289.672 243.745 288.431 249.596 288.431 257.681C288.431 265.766 289.601 271.44 291.941 274.702C294.282 277.965 297.296 279.596 300.984 279.596ZM333.573 283V280.979L335.168 280.553C337.509 279.773 338.679 278 338.679 275.234C338.679 272.823 338.679 270.411 338.679 268C338.75 265.518 338.785 263.071 338.785 260.66V220.234C338.785 218.745 338.537 217.646 338.041 216.936C337.544 216.156 336.587 215.589 335.168 215.234L333.573 214.809V212.788L352.19 208.319L353.573 209.277L353.147 224.277V275.234C353.218 276.653 353.502 277.823 353.998 278.745C354.565 279.596 355.523 280.199 356.87 280.553L358.36 280.979V283H333.573ZM389.772 230.341C394.24 230.341 398.069 231.263 401.261 233.107C404.452 234.951 406.899 237.504 408.601 240.766C410.374 243.958 411.261 247.646 411.261 251.83C411.261 252.752 411.225 253.638 411.155 254.489C411.084 255.27 410.942 256.014 410.729 256.724H378.708C378.779 264.028 380.126 269.277 382.75 272.468C385.445 275.66 389.346 277.255 394.452 277.255C397.999 277.255 400.871 276.688 403.069 275.553C405.268 274.348 407.289 272.681 409.133 270.553L410.835 272.149C408.708 276.05 405.8 279.099 402.112 281.298C398.495 283.426 394.169 284.489 389.133 284.489C384.098 284.489 379.665 283.426 375.836 281.298C372.006 279.17 368.992 276.121 366.793 272.149C364.665 268.106 363.602 263.284 363.602 257.681C363.602 251.865 364.843 246.936 367.325 242.894C369.878 238.851 373.141 235.766 377.112 233.638C381.155 231.44 385.375 230.341 389.772 230.341ZM389.24 233.426C387.183 233.426 385.375 234.029 383.814 235.234C382.325 236.369 381.119 238.426 380.197 241.404C379.346 244.312 378.85 248.426 378.708 253.745H397.75C398.53 246.582 398.247 241.404 396.899 238.213C395.552 235.021 392.999 233.426 389.24 233.426Z" fill="#F8D34D" style="fill:#F8D34D;fill:color(display-p3 0.9725 0.8275 0.3020);fill-opacity:1;"/>
</svg>
