<svg width="491" height="491" viewBox="0 0 491 491" fill="none" xmlns="http://www.w3.org/2000/svg">
<rect width="491" height="491" fill="#F84D4D" style="fill:#F84D4D;fill:color(display-p3 0.9725 0.3020 0.3020);fill-opacity:1;"/>
<path d="M74.319 218.426L55.9149 155.766C55.4184 154.206 54.851 153.036 54.2127 152.256C53.5744 151.475 52.5106 150.837 51.0213 150.341L49.7447 149.915V147.681H77.1914V149.915L74.9573 150.66C73.3261 151.156 72.2623 151.866 71.7659 152.787C71.3403 153.709 71.3403 154.986 71.7659 156.617L83.3616 200.234L96.0211 162.468L94.1062 156.298C93.6098 154.809 93.1133 153.674 92.6168 152.894C92.1204 152.043 91.3048 151.369 90.17 150.873L87.8296 149.915V147.681H113.893V149.915L110.915 150.873C109.496 151.369 108.681 152.078 108.468 153C108.255 153.922 108.397 155.163 108.893 156.724L122.298 200.872L134.638 157.362C135.134 155.731 135.276 154.312 135.063 153.107C134.851 151.901 133.929 151.05 132.298 150.553L130.17 149.915V147.681H145.915V149.915L143.255 150.766C141.837 151.263 140.808 152.007 140.17 153C139.602 153.922 139.106 155.163 138.68 156.724L121.234 218.426H113.893L98.1487 168.851L81.6594 218.426H74.319ZM162.426 219.489C159.66 219.489 157.143 218.993 154.873 218C152.604 216.936 150.795 215.234 149.448 212.894C148.171 210.482 147.568 207.326 147.639 203.426L147.958 176.724C147.958 175.163 147.71 174.029 147.214 173.319C146.717 172.61 145.831 172.114 144.554 171.83L143.277 171.404V169.49L161.469 165.979L162.639 167.149L162.107 182.149V206.298C162.107 208.709 162.745 210.482 164.022 211.617C165.369 212.681 167.036 213.213 169.022 213.213C171.079 213.213 172.923 212.929 174.554 212.362C176.256 211.723 177.994 210.801 179.767 209.596L180.086 176.83C180.086 175.199 179.838 174.064 179.341 173.426C178.916 172.787 178.064 172.291 176.788 171.936L175.618 171.617V169.702L193.384 165.979L194.554 167.149L194.235 182.149V210.021C194.235 211.511 194.412 212.716 194.767 213.638C195.192 214.489 196.079 215.128 197.426 215.553L198.809 215.979V218L180.83 219.064L179.873 212.362C177.462 214.418 174.838 216.121 172.001 217.468C169.164 218.816 165.972 219.489 162.426 219.489ZM203.12 218V215.979L204.716 215.447C206.134 215.092 207.092 214.489 207.588 213.638C208.155 212.787 208.439 211.653 208.439 210.234V179.064C208.368 177.504 208.085 176.334 207.588 175.553C207.092 174.702 206.134 174.135 204.716 173.851L203.12 173.426V171.511L220.46 165.341L221.737 166.511L222.694 175.873V176.617C223.758 174.631 225.106 172.787 226.737 171.085C228.368 169.383 230.141 168 232.056 166.936C233.971 165.873 235.886 165.341 237.801 165.341C240.496 165.341 242.517 166.05 243.865 167.468C245.212 168.887 245.886 170.695 245.886 172.894C245.886 175.305 245.212 177.149 243.865 178.426C242.517 179.631 240.886 180.234 238.971 180.234C236.134 180.234 233.687 178.958 231.631 176.404L231.418 176.192C230.709 175.341 229.893 174.88 228.971 174.809C228.12 174.667 227.269 175.092 226.418 176.085C225.709 176.794 225.035 177.646 224.397 178.638C223.829 179.56 223.297 180.66 222.801 181.936V209.809C222.801 211.156 223.085 212.291 223.652 213.213C224.219 214.064 225.177 214.667 226.524 215.021L229.716 215.979V218H203.12ZM270.133 219.489C265.948 219.489 262.19 218.567 258.856 216.723C255.523 214.809 252.899 211.901 250.984 208C249.14 204.028 248.218 198.993 248.218 192.894C248.218 186.794 249.282 181.724 251.409 177.681C253.537 173.568 256.374 170.482 259.92 168.426C263.466 166.369 267.367 165.341 271.622 165.341C274.175 165.341 276.622 165.66 278.963 166.298C281.303 166.865 283.36 167.752 285.133 168.958V155.128C285.133 153.639 284.884 152.575 284.388 151.936C283.962 151.227 283.04 150.695 281.622 150.341L279.494 149.915V147.894L298.005 143.319L299.388 144.277L298.962 159.277V210.447C298.962 211.794 299.211 212.929 299.707 213.851C300.204 214.702 301.09 215.305 302.367 215.66L303.537 215.979V218L285.877 219.17L284.92 214.702C283.005 216.191 280.806 217.362 278.324 218.213C275.842 219.064 273.111 219.489 270.133 219.489ZM275.984 214.596C279.033 214.596 281.906 213.603 284.601 211.617V172.043C281.977 170.412 279.14 169.596 276.09 169.596C272.615 169.596 269.636 171.44 267.154 175.128C264.672 178.745 263.431 184.596 263.431 192.681C263.431 200.766 264.601 206.44 266.941 209.702C269.282 212.965 272.296 214.596 275.984 214.596ZM308.573 218V215.979L310.168 215.553C312.509 214.773 313.679 213 313.679 210.234C313.679 207.823 313.679 205.411 313.679 203C313.75 200.518 313.785 198.071 313.785 195.66V155.234C313.785 153.745 313.537 152.646 313.041 151.936C312.544 151.156 311.587 150.589 310.168 150.234L308.573 149.809V147.788L327.19 143.319L328.573 144.277L328.147 159.277V210.234C328.218 211.653 328.502 212.823 328.998 213.745C329.565 214.596 330.523 215.199 331.87 215.553L333.36 215.979V218H308.573ZM364.772 165.341C369.24 165.341 373.069 166.263 376.261 168.107C379.452 169.951 381.899 172.504 383.601 175.766C385.374 178.958 386.261 182.646 386.261 186.83C386.261 187.752 386.225 188.638 386.155 189.489C386.084 190.27 385.942 191.014 385.729 191.724H353.708C353.779 199.028 355.126 204.277 357.75 207.468C360.445 210.66 364.346 212.255 369.452 212.255C372.999 212.255 375.871 211.688 378.069 210.553C380.268 209.348 382.289 207.681 384.133 205.553L385.835 207.149C383.708 211.05 380.8 214.099 377.112 216.298C373.495 218.426 369.169 219.489 364.133 219.489C359.098 219.489 354.665 218.426 350.836 216.298C347.006 214.17 343.992 211.121 341.793 207.149C339.665 203.106 338.602 198.284 338.602 192.681C338.602 186.865 339.843 181.936 342.325 177.894C344.878 173.851 348.141 170.766 352.112 168.638C356.155 166.44 360.375 165.341 364.772 165.341ZM364.24 168.426C362.183 168.426 360.375 169.029 358.814 170.234C357.325 171.369 356.119 173.426 355.197 176.404C354.346 179.312 353.85 183.426 353.708 188.745H372.75C373.53 181.582 373.247 176.404 371.899 173.213C370.552 170.021 367.999 168.426 364.24 168.426Z" fill="#F8D34D" style="fill:#F8D34D;fill:color(display-p3 0.9725 0.8275 0.3020);fill-opacity:1;"/>
<path d="M73.28 307V279.038H76.56L90.787 302.367V279.038H93.862V307H90.582L76.355 283.753V307H73.28ZM108.093 307.656C106.262 307.656 104.622 307.219 103.173 306.344C101.725 305.469 100.59 304.253 99.7705 302.695C98.9505 301.11 98.5405 299.333 98.5405 297.365C98.5405 295.397 98.9368 293.648 99.7295 292.117C100.549 290.559 101.67 289.343 103.091 288.468C104.54 287.593 106.18 287.156 108.011 287.156C109.843 287.156 111.483 287.593 112.931 288.468C114.38 289.343 115.514 290.559 116.334 292.117C117.154 293.675 117.564 295.438 117.564 297.406C117.564 299.374 117.154 301.137 116.334 302.695C115.542 304.253 114.421 305.469 112.972 306.344C111.551 307.219 109.925 307.656 108.093 307.656ZM108.011 305.114C109.323 305.114 110.485 304.786 111.496 304.13C112.535 303.474 113.341 302.558 113.915 301.383C114.489 300.208 114.776 298.882 114.776 297.406C114.776 295.93 114.489 294.604 113.915 293.429C113.341 292.254 112.535 291.338 111.496 290.682C110.485 290.026 109.323 289.698 108.011 289.698C106.727 289.698 105.579 290.026 104.567 290.682C103.556 291.338 102.763 292.254 102.189 293.429C101.615 294.577 101.328 295.889 101.328 297.365C101.328 298.868 101.615 300.208 102.189 301.383C102.763 302.558 103.556 303.474 104.567 304.13C105.579 304.786 106.727 305.114 108.011 305.114ZM122.536 307V290.354H119.256V287.812H122.536V281.457H125.324V287.812H129.752V290.354H125.324V307H122.536ZM150.213 287.156C151.935 287.156 153.493 287.58 154.887 288.427C156.281 289.274 157.374 290.436 158.167 291.912C158.959 293.361 159.356 294.987 159.356 296.791C159.356 297.31 159.342 297.707 159.315 297.98H143.53C143.639 299.948 144.281 301.629 145.457 303.023C146.632 304.417 148.231 305.114 150.254 305.114C151.894 305.114 153.247 304.813 154.313 304.212C155.406 303.583 156.281 302.722 156.937 301.629L159.151 303.105C158.249 304.526 157.06 305.647 155.584 306.467C154.108 307.26 152.358 307.656 150.336 307.656C148.477 307.656 146.823 307.219 145.375 306.344C143.926 305.469 142.792 304.253 141.972 302.695C141.152 301.137 140.742 299.374 140.742 297.406C140.742 295.438 141.138 293.675 141.931 292.117C142.751 290.559 143.871 289.343 145.293 288.468C146.741 287.593 148.381 287.156 150.213 287.156ZM156.568 295.684C156.294 293.689 155.625 292.199 154.559 291.215C153.493 290.204 152.044 289.698 150.213 289.698C148.436 289.698 146.974 290.272 145.826 291.42C144.705 292.541 143.994 293.962 143.694 295.684H156.568ZM175.094 287.812H177.923L170.953 307H167.878L160.949 287.812H163.86L169.518 304.007L175.094 287.812ZM188.81 287.156C190.532 287.156 192.09 287.58 193.484 288.427C194.878 289.274 195.972 290.436 196.764 291.912C197.557 293.361 197.953 294.987 197.953 296.791C197.953 297.31 197.94 297.707 197.912 297.98H182.127C182.237 299.948 182.879 301.629 184.054 303.023C185.23 304.417 186.829 305.114 188.851 305.114C190.491 305.114 191.844 304.813 192.91 304.212C194.004 303.583 194.878 302.722 195.534 301.629L197.748 303.105C196.846 304.526 195.657 305.647 194.181 306.467C192.705 307.26 190.956 307.656 188.933 307.656C187.075 307.656 185.421 307.219 183.972 306.344C182.524 305.469 181.389 304.253 180.569 302.695C179.749 301.137 179.339 299.374 179.339 297.406C179.339 295.438 179.736 293.675 180.528 292.117C181.348 290.559 182.469 289.343 183.89 288.468C185.339 287.593 186.979 287.156 188.81 287.156ZM195.165 295.684C194.892 293.689 194.222 292.199 193.156 291.215C192.09 290.204 190.642 289.698 188.81 289.698C187.034 289.698 185.571 290.272 184.423 291.42C183.303 292.541 182.592 293.962 182.291 295.684H195.165ZM211.499 287.156C212.155 287.156 212.784 287.252 213.385 287.443V289.985C212.811 289.712 212.183 289.575 211.499 289.575C210.324 289.575 209.231 289.903 208.219 290.559C207.208 291.215 206.388 292.172 205.759 293.429C205.158 294.659 204.857 296.121 204.857 297.816V307H202.069V287.812H204.857V291.666C205.595 290.245 206.525 289.138 207.645 288.345C208.793 287.552 210.078 287.156 211.499 287.156ZM229.165 287.812H231.789L221.416 315.2H218.628L221.662 307.369L213.79 287.812H216.701L223.056 303.72L229.165 287.812ZM235.406 307V290.354H232.126V287.812H235.406V281.457H238.194V287.812H242.622V290.354H238.194V307H235.406ZM254.815 287.156C256.154 287.156 257.384 287.429 258.505 287.976C259.653 288.523 260.555 289.329 261.211 290.395C261.894 291.461 262.236 292.718 262.236 294.167V307H259.448V295.397C259.448 291.598 257.753 289.698 254.364 289.698C252.396 289.698 250.92 290.395 249.936 291.789C248.952 293.183 248.46 295.055 248.46 297.406V307H245.672V277.234H248.46V291.01C249.116 289.78 249.977 288.837 251.043 288.181C252.136 287.498 253.394 287.156 254.815 287.156ZM269.09 307V287.812H271.878V307H269.09ZM270.484 284.081C269.856 284.081 269.323 283.862 268.885 283.425C268.475 282.988 268.27 282.455 268.27 281.826C268.27 281.225 268.475 280.719 268.885 280.309C269.323 279.872 269.856 279.653 270.484 279.653C271.086 279.653 271.605 279.872 272.042 280.309C272.48 280.719 272.698 281.238 272.698 281.867C272.698 282.468 272.48 282.988 272.042 283.425C271.605 283.862 271.086 284.081 270.484 284.081ZM287.687 287.156C289.026 287.156 290.256 287.429 291.377 287.976C292.525 288.523 293.427 289.329 294.083 290.395C294.766 291.461 295.108 292.718 295.108 294.167V307H292.32V295.397C292.32 291.598 290.625 289.698 287.236 289.698C285.268 289.698 283.792 290.395 282.808 291.789C281.824 293.183 281.332 295.055 281.332 297.406V307H278.544V287.812H281.332V291.01C281.988 289.78 282.849 288.837 283.915 288.181C285.008 287.498 286.266 287.156 287.687 287.156ZM318.4 287.812V306.262C318.4 307.984 318.045 309.515 317.334 310.854C316.624 312.221 315.626 313.287 314.341 314.052C313.057 314.817 311.594 315.2 309.954 315.2H302V312.658H309.954C311.622 312.658 312.975 312.057 314.013 310.854C315.079 309.651 315.612 308.121 315.612 306.262V304.171C314.82 305.264 313.849 306.125 312.701 306.754C311.553 307.355 310.296 307.656 308.929 307.656C307.098 307.656 305.458 307.219 304.009 306.344C302.561 305.469 301.426 304.253 300.606 302.695C299.786 301.137 299.376 299.36 299.376 297.365C299.376 295.397 299.773 293.648 300.565 292.117C301.385 290.559 302.506 289.343 303.927 288.468C305.376 287.593 307.016 287.156 308.847 287.156C310.241 287.156 311.512 287.47 312.66 288.099C313.836 288.7 314.82 289.561 315.612 290.682V287.812H318.4ZM308.847 305.114C310.159 305.114 311.321 304.786 312.332 304.13C313.371 303.474 314.177 302.558 314.751 301.383C315.325 300.208 315.612 298.882 315.612 297.406C315.612 295.93 315.325 294.604 314.751 293.429C314.177 292.254 313.371 291.338 312.332 290.682C311.321 290.026 310.159 289.698 308.847 289.698C307.563 289.698 306.415 290.026 305.403 290.682C304.392 291.338 303.599 292.254 303.025 293.429C302.451 294.577 302.164 295.889 302.164 297.365C302.164 298.868 302.451 300.208 303.025 301.383C303.599 302.558 304.392 303.474 305.403 304.13C306.415 304.786 307.563 305.114 308.847 305.114ZM81.726 328.156C83.0653 328.156 84.2953 328.429 85.416 328.976C86.564 329.523 87.466 330.329 88.122 331.395C88.8053 332.461 89.147 333.718 89.147 335.167V348H86.359V336.397C86.359 332.598 84.6643 330.698 81.275 330.698C79.307 330.698 77.831 331.395 76.847 332.789C75.863 334.183 75.371 336.055 75.371 338.406V348H72.583V328.812H75.371V332.01C76.027 330.78 76.888 329.837 77.954 329.181C79.0473 328.498 80.3047 328.156 81.726 328.156ZM102.886 328.156C104.608 328.156 106.166 328.58 107.56 329.427C108.954 330.274 110.048 331.436 110.84 332.912C111.633 334.361 112.029 335.987 112.029 337.791C112.029 338.31 112.016 338.707 111.988 338.98H96.2035C96.3128 340.948 96.9552 342.629 98.1305 344.023C99.3058 345.417 100.905 346.114 102.927 346.114C104.567 346.114 105.92 345.813 106.986 345.212C108.08 344.583 108.954 343.722 109.61 342.629L111.824 344.105C110.922 345.526 109.733 346.647 108.257 347.467C106.781 348.26 105.032 348.656 103.009 348.656C101.151 348.656 99.4972 348.219 98.0485 347.344C96.5998 346.469 95.4655 345.253 94.6455 343.695C93.8255 342.137 93.4155 340.374 93.4155 338.406C93.4155 336.438 93.8118 334.675 94.6045 333.117C95.4245 331.559 96.5452 330.343 97.9665 329.468C99.4152 328.593 101.055 328.156 102.886 328.156ZM109.241 336.684C108.968 334.689 108.298 333.199 107.232 332.215C106.166 331.204 104.718 330.698 102.886 330.698C101.11 330.698 99.6475 331.272 98.4995 332.42C97.3788 333.541 96.6682 334.962 96.3675 336.684H109.241ZM124.428 328.156C126.15 328.156 127.708 328.58 129.102 329.427C130.496 330.274 131.589 331.436 132.382 332.912C133.174 334.361 133.571 335.987 133.571 337.791C133.571 338.31 133.557 338.707 133.53 338.98H117.745C117.854 340.948 118.496 342.629 119.672 344.023C120.847 345.417 122.446 346.114 124.469 346.114C126.109 346.114 127.462 345.813 128.528 345.212C129.621 344.583 130.496 343.722 131.152 342.629L133.366 344.105C132.464 345.526 131.275 346.647 129.799 347.467C128.323 348.26 126.573 348.656 124.551 348.656C122.692 348.656 121.038 348.219 119.589 347.344C118.141 346.469 117.007 345.253 116.187 343.695C115.367 342.137 114.957 340.374 114.957 338.406C114.957 336.438 115.353 334.675 116.146 333.117C116.966 331.559 118.086 330.343 119.508 329.468C120.956 328.593 122.596 328.156 124.428 328.156ZM130.783 336.684C130.509 334.689 129.84 333.199 128.774 332.215C127.708 331.204 126.259 330.698 124.428 330.698C122.651 330.698 121.189 331.272 120.041 332.42C118.92 333.541 118.209 334.962 117.909 336.684H130.783ZM155.522 318.234V348H152.734V345.171C151.941 346.264 150.971 347.125 149.823 347.754C148.675 348.355 147.417 348.656 146.051 348.656C144.219 348.656 142.579 348.219 141.131 347.344C139.682 346.469 138.548 345.253 137.728 343.695C136.908 342.137 136.498 340.36 136.498 338.365C136.498 336.397 136.894 334.648 137.687 333.117C138.507 331.559 139.627 330.343 141.049 329.468C142.497 328.593 144.137 328.156 145.969 328.156C147.363 328.156 148.634 328.47 149.782 329.099C150.957 329.7 151.941 330.561 152.734 331.682V318.234H155.522ZM145.969 346.114C147.281 346.114 148.442 345.786 149.454 345.13C150.492 344.474 151.299 343.558 151.873 342.383C152.447 341.208 152.734 339.882 152.734 338.406C152.734 336.93 152.447 335.604 151.873 334.429C151.299 333.254 150.492 332.338 149.454 331.682C148.442 331.026 147.281 330.698 145.969 330.698C144.684 330.698 143.536 331.026 142.525 331.682C141.513 332.338 140.721 333.254 140.147 334.429C139.573 335.577 139.286 336.889 139.286 338.365C139.286 339.868 139.573 341.208 140.147 342.383C140.721 343.558 141.513 344.474 142.525 345.13C143.536 345.786 144.684 346.114 145.969 346.114ZM167.434 348.656C165.575 348.656 163.935 348.26 162.514 347.467C161.12 346.674 160.054 345.554 159.316 344.105L161.817 342.875C162.828 345.034 164.81 346.114 167.762 346.114C169.183 346.114 170.359 345.854 171.288 345.335C172.217 344.816 172.682 344.009 172.682 342.916C172.682 341.795 172.299 340.962 171.534 340.415C170.796 339.868 169.484 339.513 167.598 339.349C164.974 339.13 163.088 338.543 161.94 337.586C160.819 336.629 160.259 335.358 160.259 333.773C160.259 331.996 160.901 330.616 162.186 329.632C163.471 328.648 165.234 328.156 167.475 328.156C171.274 328.156 173.857 329.659 175.224 332.666L172.723 333.896C172.258 332.803 171.575 331.996 170.673 331.477C169.798 330.958 168.664 330.698 167.27 330.698C165.849 330.698 164.755 330.958 163.99 331.477C163.252 331.996 162.883 332.734 162.883 333.691C162.883 334.593 163.279 335.331 164.072 335.905C164.892 336.452 166.286 336.807 168.254 336.971C170.687 337.19 172.491 337.791 173.666 338.775C174.869 339.732 175.47 341.003 175.47 342.588C175.47 343.873 175.101 344.98 174.363 345.909C173.625 346.811 172.641 347.494 171.411 347.959C170.181 348.424 168.855 348.656 167.434 348.656ZM189.841 348V331.354H186.561V328.812H189.841V322.457H192.629V328.812H197.057V331.354H192.629V348H189.841ZM208.471 348.656C206.64 348.656 205 348.219 203.551 347.344C202.103 346.469 200.968 345.253 200.148 343.695C199.328 342.11 198.918 340.333 198.918 338.365C198.918 336.397 199.315 334.648 200.107 333.117C200.927 331.559 202.048 330.343 203.469 329.468C204.918 328.593 206.558 328.156 208.389 328.156C210.221 328.156 211.861 328.593 213.309 329.468C214.758 330.343 215.892 331.559 216.712 333.117C217.532 334.675 217.942 336.438 217.942 338.406C217.942 340.374 217.532 342.137 216.712 343.695C215.92 345.253 214.799 346.469 213.35 347.344C211.929 348.219 210.303 348.656 208.471 348.656ZM208.389 346.114C209.701 346.114 210.863 345.786 211.874 345.13C212.913 344.474 213.719 343.558 214.293 342.383C214.867 341.208 215.154 339.882 215.154 338.406C215.154 336.93 214.867 335.604 214.293 334.429C213.719 333.254 212.913 332.338 211.874 331.682C210.863 331.026 209.701 330.698 208.389 330.698C207.105 330.698 205.957 331.026 204.945 331.682C203.934 332.338 203.141 333.254 202.567 334.429C201.993 335.577 201.706 336.889 201.706 338.365C201.706 339.868 201.993 341.208 202.567 342.383C203.141 343.558 203.934 344.474 204.945 345.13C205.957 345.786 207.105 346.114 208.389 346.114ZM240.612 328.156C242.443 328.156 244.069 328.593 245.491 329.468C246.939 330.343 248.06 331.559 248.853 333.117C249.673 334.648 250.083 336.397 250.083 338.365C250.083 340.36 249.673 342.137 248.853 343.695C248.033 345.253 246.898 346.469 245.45 347.344C244.001 348.219 242.361 348.656 240.53 348.656C239.163 348.656 237.906 348.355 236.758 347.754C235.61 347.125 234.639 346.264 233.847 345.171V348H231.059V318.234H233.847V331.682C234.639 330.561 235.61 329.7 236.758 329.099C237.933 328.47 239.218 328.156 240.612 328.156ZM240.612 346.114C241.896 346.114 243.044 345.786 244.056 345.13C245.067 344.474 245.86 343.558 246.434 342.383C247.008 341.208 247.295 339.868 247.295 338.365C247.295 336.889 247.008 335.577 246.434 334.429C245.86 333.254 245.067 332.338 244.056 331.682C243.044 331.026 241.896 330.698 240.612 330.698C239.3 330.698 238.124 331.026 237.086 331.682C236.074 332.338 235.282 333.254 234.708 334.429C234.134 335.604 233.847 336.93 233.847 338.406C233.847 339.882 234.134 341.208 234.708 342.383C235.282 343.558 236.074 344.474 237.086 345.13C238.124 345.786 239.3 346.114 240.612 346.114ZM262.282 328.156C264.004 328.156 265.562 328.58 266.956 329.427C268.35 330.274 269.443 331.436 270.236 332.912C271.029 334.361 271.425 335.987 271.425 337.791C271.425 338.31 271.411 338.707 271.384 338.98H255.599C255.708 340.948 256.351 342.629 257.526 344.023C258.701 345.417 260.3 346.114 262.323 346.114C263.963 346.114 265.316 345.813 266.382 345.212C267.475 344.583 268.35 343.722 269.006 342.629L271.22 344.105C270.318 345.526 269.129 346.647 267.653 347.467C266.177 348.26 264.428 348.656 262.405 348.656C260.546 348.656 258.893 348.219 257.444 347.344C255.995 346.469 254.861 345.253 254.041 343.695C253.221 342.137 252.811 340.374 252.811 338.406C252.811 336.438 253.207 334.675 254 333.117C254.82 331.559 255.941 330.343 257.362 329.468C258.811 328.593 260.451 328.156 262.282 328.156ZM268.637 336.684C268.364 334.689 267.694 333.199 266.628 332.215C265.562 331.204 264.113 330.698 262.282 330.698C260.505 330.698 259.043 331.272 257.895 332.42C256.774 333.541 256.064 334.962 255.763 336.684H268.637ZM301.521 328.812V348H298.733V344.802C298.077 346.032 297.202 346.989 296.109 347.672C295.043 348.328 293.799 348.656 292.378 348.656C291.039 348.656 289.795 348.383 288.647 347.836C287.526 347.289 286.624 346.483 285.941 345.417C285.285 344.351 284.957 343.094 284.957 341.645V328.812H287.745V340.415C287.745 344.214 289.44 346.114 292.829 346.114C294.797 346.114 296.273 345.417 297.257 344.023C298.241 342.629 298.733 340.757 298.733 338.406V328.812H301.521ZM313.456 348.656C311.598 348.656 309.958 348.26 308.536 347.467C307.142 346.674 306.076 345.554 305.338 344.105L307.839 342.875C308.851 345.034 310.832 346.114 313.784 346.114C315.206 346.114 316.381 345.854 317.31 345.335C318.24 344.816 318.704 344.009 318.704 342.916C318.704 341.795 318.322 340.962 317.556 340.415C316.818 339.868 315.506 339.513 313.62 339.349C310.996 339.13 309.11 338.543 307.962 337.586C306.842 336.629 306.281 335.358 306.281 333.773C306.281 331.996 306.924 330.616 308.208 329.632C309.493 328.648 311.256 328.156 313.497 328.156C317.297 328.156 319.88 329.659 321.246 332.666L318.745 333.896C318.281 332.803 317.597 331.996 316.695 331.477C315.821 330.958 314.686 330.698 313.292 330.698C311.871 330.698 310.778 330.958 310.012 331.477C309.274 331.996 308.905 332.734 308.905 333.691C308.905 334.593 309.302 335.331 310.094 335.905C310.914 336.452 312.308 336.807 314.276 336.971C316.709 337.19 318.513 337.791 319.688 338.775C320.891 339.732 321.492 341.003 321.492 342.588C321.492 343.873 321.123 344.98 320.385 345.909C319.647 346.811 318.663 347.494 317.433 347.959C316.203 348.424 314.878 348.656 313.456 348.656ZM333.992 328.156C335.714 328.156 337.272 328.58 338.666 329.427C340.06 330.274 341.153 331.436 341.946 332.912C342.739 334.361 343.135 335.987 343.135 337.791C343.135 338.31 343.121 338.707 343.094 338.98H327.309C327.418 340.948 328.061 342.629 329.236 344.023C330.411 345.417 332.01 346.114 334.033 346.114C335.673 346.114 337.026 345.813 338.092 345.212C339.185 344.583 340.06 343.722 340.716 342.629L342.93 344.105C342.028 345.526 340.839 346.647 339.363 347.467C337.887 348.26 336.138 348.656 334.115 348.656C332.256 348.656 330.603 348.219 329.154 347.344C327.705 346.469 326.571 345.253 325.751 343.695C324.931 342.137 324.521 340.374 324.521 338.406C324.521 336.438 324.917 334.675 325.71 333.117C326.53 331.559 327.651 330.343 329.072 329.468C330.521 328.593 332.161 328.156 333.992 328.156ZM340.347 336.684C340.074 334.689 339.404 333.199 338.338 332.215C337.272 331.204 335.823 330.698 333.992 330.698C332.215 330.698 330.753 331.272 329.605 332.42C328.484 333.541 327.774 334.962 327.473 336.684H340.347ZM354.344 320.079C353.387 320.079 352.595 320.407 351.966 321.063C351.365 321.719 351.064 322.566 351.064 323.605V328.812H355.492V331.354H351.064V348H348.276V331.354H345.816V328.812H348.276V323.605C348.276 321.828 348.836 320.38 349.957 319.259C351.105 318.111 352.567 317.537 354.344 317.537H355.492V320.079H354.344ZM375.393 328.812V348H372.605V344.802C371.949 346.032 371.074 346.989 369.981 347.672C368.915 348.328 367.671 348.656 366.25 348.656C364.911 348.656 363.667 348.383 362.519 347.836C361.398 347.289 360.496 346.483 359.813 345.417C359.157 344.351 358.829 343.094 358.829 341.645V328.812H361.617V340.415C361.617 344.214 363.312 346.114 366.701 346.114C368.669 346.114 370.145 345.417 371.129 344.023C372.113 342.629 372.605 340.757 372.605 338.406V328.812H375.393ZM380.768 348V318.234H383.556V348H380.768ZM390.45 348.328C389.848 348.328 389.329 348.109 388.892 347.672C388.482 347.235 388.277 346.702 388.277 346.073C388.277 345.472 388.482 344.952 388.892 344.515C389.329 344.078 389.848 343.859 390.45 343.859C391.078 343.859 391.611 344.078 392.049 344.515C392.486 344.952 392.705 345.485 392.705 346.114C392.705 346.715 392.486 347.235 392.049 347.672C391.611 348.109 391.078 348.328 390.45 348.328Z" fill="black" style="fill:black;fill-opacity:1;"/>
</svg>
